Simulation
nRows=15
nColumns=15
endheader
time  TH_x TH_y TH_z SC_y  SC_z  SC_x  AC_y  AC_z  AC_x  GH_y  GH_z  GH_yy  EL_x  PS_y
0.0  0.000000  0.000000  0.000000  -25.166040539212762  -2.7029500722548043  6.1883453942326065  60.67849728267728  0.25431145180039644  -12.775451558300752  -5.346350650906258  14.373323643280449  31.807159300557654  24.818481846695637  120.000000
0.027999999999999997  0.000000  0.000000  0.000000  -25.444560276898827  -2.688758375171836  5.971064161594151  60.726247915946765  0.6421230670189979  -12.678087373821267  -7.75720173473039  14.600600808074558  34.195817678708295  24.49234963310063  120.000000
0.055999999999999994  0.000000  0.000000  0.000000  -25.721830460721172  -2.6826716199534495  5.7538163000576805  60.8320473984616  0.9766455037485807  -12.515295205035862  -9.607730066927253  14.839632050065855  36.041701987348716  24.212785194157593  120.000000
0.08399999999999999  0.000000  0.000000  0.000000  -25.98978704995839  -2.670678564152805  5.539574189719822  60.98287462347314  1.2573191428829271  -12.301169030955583  -10.977124354439034  15.082692021507063  37.40992425660837  23.957035597082616  120.000000
0.11199999999999999  0.000000  0.000000  0.000000  -26.245695268188726  -2.6362318258947117  5.333351139747424  61.16258054229557  1.4884016495378303  -12.044746650740091  -11.977755059591319  15.330378529159333  38.40058123204559  23.715284815443706  120.000000
0.13999999999999999  0.000000  0.000000  0.000000  -26.489642518584027  -2.578678853898992  5.140812730920309  61.359216486718594  1.6792502535712122  -11.759456396678615  -12.731878990222222  15.595157213402905  39.11860502368484  23.47325144891855  120.000000
0.16799999999999998  0.000000  0.000000  0.000000  -26.722178023058966  -2.4968688971062  4.967094525534125  61.56555673733164  1.8381283316930637  -11.455760804487962  -13.349546620640924  15.894162338129865  39.65714364244489  23.224895886808163  120.000000
0.19599999999999998  0.000000  0.000000  0.000000  -26.946051604124236  -2.393517602851047  4.816850386843853  61.7790903457379  1.9722174206166287  -11.14206403418813  -13.925467701683225  16.247516638929177  40.09565418078166  22.968003124198745  120.000000
0.22399999999999998  0.000000  0.000000  0.000000  -27.16318778362256  -2.2732173760615106  4.693071926184675  62.000779141807314  2.087626322323445  -10.824613002957639  -14.528984751645726  16.6748193485098  40.487924980222175  22.702089067595722  120.000000
0.252  0.000000  0.000000  0.000000  -27.37786159210489  -2.1403611877621507  4.597855933730751  62.23398679977374  2.189739690787992  -10.506801655206203  -15.203686332862057  17.19342181805401  40.86395760384783  22.429371826584717  120.000000
0.27999999999999997  0.000000  0.000000  0.000000  -27.59370446632147  -1.9987100394236474  4.532170931884491  62.48253406057889  2.2838107831622616  -10.190604743814461  -15.967892658581068  17.816141081028604  41.22889021508939  22.152497918242396  120.000000
0.30799999999999994  0.000000  0.000000  0.000000  -27.816188093377157  -1.850766224298608  4.49656348584051  62.74950117237782  2.375231187776238  -9.87718909170536  -16.819495375385166  18.550316367333313  41.5687150958224  21.87470790723201  120.000000
0.33599999999999997  0.000000  0.000000  0.000000  -28.05042932089287  -1.6972121190735996  4.491307524006975  63.035919830787435  2.4700130387336525  -9.56765568826985  -17.741831537072226  19.397062175519512  41.85569349069095  21.5991285581653  120.000000
0.364  0.000000  0.000000  0.000000  -28.302650080240003  -1.5368632243294165  4.517351226525229  63.34069718353993  2.575259807537452  -9.263841618042195  -18.70988174523888  20.352086927324276  42.055186666504824  21.328314977375413  120.000000
0.39199999999999996  0.000000  0.000000  0.000000  -28.577411449749174  -1.366402631315301  4.576075328009769  63.66123285479731  2.699207375285328  -8.968635526896671  -19.69531165457518  21.407010754717977  42.130970733640176  21.064134511475594  120.000000
